<svg width="71" height="71" viewBox="0 0 71 71" fill="none" xmlns="http://www.w3.org/2000/svg">
<path d="M8.875 35.5C8.875 38.9964 9.56368 42.4587 10.9017 45.6889C12.2397 48.9192 14.2009 51.8544 16.6733 54.3267C19.1456 56.7991 22.0808 58.7603 25.3111 60.0983C28.5413 61.4363 32.0036 62.125 35.5 62.125C38.9964 62.125 42.4587 61.4363 45.6889 60.0983C48.9192 58.7603 51.8544 56.7991 54.3267 54.3267C56.7991 51.8544 58.7603 48.9192 60.0983 45.6889C61.4363 42.4587 62.125 38.9964 62.125 35.5C62.125 32.0036 61.4363 28.5413 60.0983 25.3111C58.7603 22.0808 56.7991 19.1456 54.3267 16.6733C51.8544 14.2009 48.9192 12.2397 45.6889 10.9017C42.4587 9.56368 38.9964 8.875 35.5 8.875C32.0036 8.875 28.5413 9.56368 25.3111 10.9017C22.0808 12.2397 19.1456 14.2009 16.6733 16.6733C14.2009 19.1456 12.2397 22.0808 10.9017 25.3111C9.56368 28.5413 8.875 32.0036 8.875 35.5Z" stroke="white" stroke-width="5" stroke-linecap="round" stroke-linejoin="round"/>
<path d="M20.7083 29.5833V35.5C20.7083 37.0692 21.3317 38.5741 22.4413 39.6837C23.5509 40.7933 25.0558 41.4167 26.625 41.4167C28.1942 41.4167 29.6991 40.7933 30.8087 39.6837C31.9183 38.5741 32.5417 37.0692 32.5417 35.5V29.5833M41.4167 29.5833L50.2917 41.4167M41.4167 41.4167L50.2917 29.5833" stroke="white" stroke-width="5" stroke-linecap="round" stroke-linejoin="round"/>
</svg>
