<?xml version="1.0" encoding="UTF-8"?>
<svg  version="1.1" xmlns="http://www.w3.org/2000/svg" width="610" height="595">
<path d="M0 0 C0.6974231 0.00093658 1.39484619 0.00187317 2.11340332 0.00283813 C45.79141679 0.12896384 88.91797836 9.61801402 128.875 27.25 C129.9690918 27.73227051 131.06318359 28.21454102 132.19042969 28.71142578 C152.47937133 37.89624267 152.47937133 37.89624267 154.625 42.1875 C153.47686249 44.45759348 152.27506286 46.58299337 150.953125 48.75 C150.55924591 49.4095871 150.16536682 50.06917419 149.759552 50.74874878 C148.47238726 52.89971733 147.17387714 55.04358748 145.875 57.1875 C144.99626134 58.65081656 144.11816877 60.1145213 143.24072266 61.57861328 C137.69976237 70.81045914 132.11444156 80.01631884 126.4609375 89.1796875 C124.69348734 91.98029513 124.69348734 91.98029513 123.625 94.1875 C124.30691406 94.414375 124.98882812 94.64125 125.69140625 94.875 C129.35490643 96.51406267 132.38314138 98.77804205 135.5625 101.1875 C136.89504715 102.18464524 138.22839991 103.18071467 139.5625 104.17578125 C140.57376953 104.93109131 140.57376953 104.93109131 141.60546875 105.70166016 C144.12836191 107.55784098 146.6968482 109.34230779 149.27124023 111.12597656 C168.07891008 124.24033378 176.58166216 141.28510466 181.06640625 163.6328125 C181.98230424 169.46125423 182.36523201 175.29345386 182.625 181.1875 C183.32689453 181.43685303 184.02878906 181.68620605 184.75195312 181.94311523 C187.99812993 183.34911143 190.67419885 185.09828992 193.59375 187.09765625 C194.46289284 187.68964561 194.46289284 187.68964561 195.34959412 188.29359436 C196.61136531 189.15384521 197.8716401 190.01629411 199.13058472 190.88067627 C201.17345468 192.28326797 203.22010453 193.68018025 205.26782227 195.07568359 C208.20845303 197.07994255 211.14777315 199.08610375 214.08642578 201.09326172 C220.80054888 205.67506428 227.53851579 210.22156225 234.27590942 214.76904297 C236.57480837 216.3208082 238.87328676 217.87319436 241.17163086 219.42578125 C244.33139954 221.56027105 247.49130632 223.69455608 250.65136719 225.82861328 C254.09224957 228.15231827 257.53299017 230.47623302 260.97363281 232.80029297 C265.50146456 235.85867382 270.02957972 238.91663465 274.55789185 241.9743042 C276.28573053 243.14106203 278.01349565 244.30792882 279.74118042 245.47491455 C281.37774029 246.58030585 283.01444989 247.68547551 284.65132141 248.79040527 C286.19538875 249.83298296 287.73893467 250.87633337 289.28190613 251.92053223 C292.64991401 254.1967659 296.02503696 256.45758016 299.43701172 258.66748047 C300.53932129 259.38436035 301.64163086 260.10124023 302.77734375 260.83984375 C303.72472412 261.44691162 304.67210449 262.05397949 305.64819336 262.67944336 C306.30053955 263.17710205 306.95288574 263.67476074 307.625 264.1875 C307.625 264.8475 307.625 265.5075 307.625 266.1875 C286.175 266.1875 264.725 266.1875 242.625 266.1875 C250.545 271.6325 250.545 271.6325 258.625 277.1875 C265.58984375 281.97583008 265.58984375 281.97583008 272.5546875 286.76416016 C273.23789062 287.2338623 273.92109375 287.70356445 274.625 288.1875 C276.89583333 289.74869792 279.16666667 291.30989583 281.4375 292.87109375 C282.159375 293.36738281 282.88125 293.86367188 283.625 294.375 C285.95833333 295.97916667 288.29166667 297.58333333 290.625 299.1875 C289.14553141 302.73189534 287.20259273 304.69000579 284.3125 307.1875 C280.24036775 310.76160169 276.22177444 314.37802773 272.25 318.0625 C266.88097801 323.03269403 261.48943489 327.97747297 256.0859375 332.91015625 C253.74400969 334.99521419 253.74400969 334.99521419 252.29534912 336.71575928 C250.1362476 338.6181386 248.19111889 339.18355176 245.43847656 340.01269531 C244.38017639 340.33602844 243.32187622 340.65936157 242.23150635 340.99249268 C241.0877655 341.33012634 239.94402466 341.66776001 238.765625 342.015625 C237.58788513 342.36888855 236.41014526 342.7221521 235.19671631 343.08612061 C232.06486141 344.02118442 228.93023651 344.94623417 225.79467773 345.86877441 C222.62158195 346.80883884 219.45624873 347.7746216 216.2890625 348.734375 C213.86504197 349.45467027 211.44057636 350.17346971 209.015625 350.890625 C207.87998108 351.23635559 206.74433716 351.58208618 205.57427979 351.93829346 C197.55252202 354.26580868 192.14491377 354.83163789 184.51504517 350.78883362 C183.9209787 350.46019821 183.32691223 350.13156281 182.71484375 349.79296875 C181.75268448 349.27735634 181.75268448 349.27735634 180.77108765 348.75132751 C178.69590399 347.63601673 176.62925559 346.50583978 174.5625 345.375 C173.13028399 344.601157 171.69758139 343.82821394 170.2644043 343.05615234 C166.70584428 341.13588217 163.15413739 339.20333141 159.60461426 337.26641846 C156.67488304 335.66967249 153.73962574 334.08324851 150.8046875 332.49609375 C147.13339856 330.50604101 143.46363347 328.51335754 139.80078125 326.5078125 C139.06553223 326.10594727 138.3302832 325.70408203 137.57275391 325.29003906 C135.92258931 324.35595241 134.31997942 323.33862022 132.73046875 322.3046875 C132.03566406 321.93601562 131.34085937 321.56734375 130.625 321.1875 C126.96269827 322.40826724 126.51993173 323.4618154 124.48828125 326.66015625 C123.62299805 328.00883789 123.62299805 328.00883789 122.74023438 329.38476562 C122.14533203 330.33029297 121.55042969 331.27582031 120.9375 332.25 C120.02774414 333.6740918 120.02774414 333.6740918 119.09960938 335.12695312 C117.60057213 337.47583826 116.10945834 339.82938432 114.625 342.1875 C109.25045037 339.27723051 104.05871721 336.25339356 99 332.8125 C97.68826249 331.92725453 96.37570806 331.04321878 95.0625 330.16015625 C94.35351562 329.68336426 93.64453125 329.20657227 92.9140625 328.71533203 C88.63279233 325.85780337 84.31453419 323.05693881 80 320.25 C78.03898898 318.97276912 76.07805433 317.69542098 74.1171875 316.41796875 C73.08303711 315.74427246 72.04888672 315.07057617 70.98339844 314.37646484 C65.3376479 310.6972943 59.69498592 307.0134132 54.05548096 303.32467651 C52.78171306 302.49186855 51.50759116 301.65960174 50.23309326 300.82791138 C48.43572095 299.654911 46.63960444 298.48001001 44.84375 297.3046875 C43.81185547 296.63034668 42.77996094 295.95600586 41.71679688 295.26123047 C38.30057662 292.9699027 34.96182664 290.59271732 31.625 288.1875 C33.22457566 281.87382851 34.82923279 275.56146312 36.4375 269.25 C36.80157455 267.82096848 36.80157455 267.82096848 37.17300415 266.36306763 C41.40013831 249.79201529 45.78058199 233.26555229 50.27075195 216.76391602 C50.49662994 215.93046661 50.72250793 215.09701721 50.95523071 214.23831177 C51.3775465 212.68055776 51.80196671 211.12337219 52.22885132 209.56686401 C53.2637963 205.92948997 53.2637963 205.92948997 53.625 202.1875 C40.67961307 229.39356767 40.67961307 229.39356767 27.98583984 256.7175293 C25.30597769 262.56004006 22.59535926 268.38654422 19.8515625 274.19921875 C19.20466711 275.57287641 18.55785689 276.94657418 17.91113281 278.3203125 C16.967386 280.32489154 16.02205243 282.32861836 15.07067871 284.32958984 C14.19604348 286.16936018 13.32794311 288.01209331 12.4609375 289.85546875 C11.96126465 290.91016357 11.4615918 291.9648584 10.94677734 293.05151367 C9.53240224 296.40719306 8.55690166 299.6714378 7.625 303.1875 C12.5832378 307.73703273 17.58075555 312.20340051 22.8125 316.4375 C27.26352192 320.04220085 31.61698605 323.74120267 35.9375 327.5 C36.57099365 328.05107422 37.2044873 328.60214844 37.85717773 329.16992188 C39.14331655 330.28912485 40.42936788 331.40842837 41.71533203 332.52783203 C48.75772391 338.6482846 55.81502801 344.74780337 63.0625 350.625 C68.11433717 354.72729949 73.0280598 358.97451978 77.93505859 363.24755859 C82.51440288 367.23317681 87.12859938 371.17373639 91.77197266 375.08447266 C94.60476144 377.47222067 97.42583107 379.87217884 100.23046875 382.29296875 C100.83415283 382.81375 101.43783691 383.33453125 102.05981445 383.87109375 C103.2555594 384.9029565 104.45072404 385.93549216 105.64526367 386.96875 C109.67730081 390.43539869 113.81973703 393.69210301 118.1484375 396.78515625 C118.63570313 397.24792969 119.12296875 397.71070313 119.625 398.1875 C119.625 399.1775 119.625 400.1675 119.625 401.1875 C102.795 406.4675 85.965 411.7475 68.625 417.1875 C73.89934253 428.90826117 79.13158137 440.46907336 84.93789673 451.9067688 C86.80356127 455.58368735 88.65338811 459.26856636 90.50390625 462.953125 C90.86709457 463.67577042 91.2302829 464.39841583 91.60447693 465.14295959 C94.44954423 470.81371335 97.22108241 476.51642829 99.9375 482.25 C104.98190636 492.89380624 110.14228793 503.47941922 115.3125 514.0625 C117.05616833 517.63272523 118.79963417 521.20304929 120.54296875 524.7734375 C120.97303726 525.65420456 121.40310577 526.53497162 121.84620667 527.44242859 C127.55176032 539.13031422 133.23075482 550.83098657 138.88909912 562.54179382 C140.71791089 566.32349919 142.55915181 570.09883793 144.41091919 573.86935425 C145.8416533 576.78535923 147.26346134 579.70572074 148.6875 582.625 C149.20699219 583.67429687 149.72648437 584.72359375 150.26171875 585.8046875 C150.72320312 586.75472656 151.1846875 587.70476563 151.66015625 588.68359375 C152.0662915 589.51044678 152.47242676 590.3372998 152.89086914 591.18920898 C153.13313232 591.84864502 153.37539551 592.50808105 153.625 593.1875 C153.295 593.8475 152.965 594.5075 152.625 595.1875 C138.41787772 580.0615973 138.41787772 580.0615973 133.26171875 574.07421875 C131.24626228 571.75091213 129.18651538 569.47001535 127.125 567.1875 C123.86109152 563.57073655 120.63709051 559.92360392 117.4375 556.25 C115.35288836 553.87785571 113.24071356 551.53193935 111.125 549.1875 C106.32592208 543.86415307 101.5842205 538.49886661 96.9453125 533.03515625 C91.35058261 526.45431821 85.66764888 519.98984102 79.78125 513.66796875 C76.56530561 510.21380626 73.41982045 506.71314408 70.33203125 503.14453125 C68.28866569 500.8019085 66.20819141 498.49476578 64.125 496.1875 C60.85795665 492.56726277 57.62979224 488.91766435 54.4296875 485.23828125 C52.39541859 482.92661203 50.3227769 480.6521857 48.25 478.375 C45.19641133 474.99809018 42.28070795 471.55532868 39.4375 468 C34.53496514 461.93429782 29.20241963 456.30585023 23.85546875 450.6328125 C20.91467421 447.50974078 18.06100823 444.32477908 15.26171875 441.07421875 C13.24626228 438.75091213 11.18651538 436.47001535 9.125 434.1875 C5.90407075 430.61836218 2.72068713 427.02084266 -0.43554688 423.39453125 C-2.63553132 420.89102428 -4.86243717 418.41311716 -7.09375 415.9375 C-7.89748047 415.04546875 -8.70121094 414.1534375 -9.52929688 413.234375 C-10.13837891 412.55890625 -10.74746094 411.8834375 -11.375 411.1875 C-11.85743164 412.13254395 -12.33986328 413.07758789 -12.83691406 414.05126953 C-28.95288415 445.60048974 -28.95288415 445.60048974 -36.82519531 459.81884766 C-41.34193845 468.02338962 -45.60717379 476.35181797 -49.875 484.6875 C-54.57900566 493.87510358 -59.3123201 503.0312762 -64.3125 512.0625 C-69.95367841 522.25454503 -75.2489589 532.61531869 -80.5501709 542.98660278 C-85.72701618 553.10959493 -91.00778162 563.15785762 -96.50488281 573.11181641 C-100.32677894 580.04395467 -103.92265646 587.06400241 -107.375 594.1875 C-127.00624615 591.08039629 -151.21488788 561.39309385 -162.1796875 546.4140625 C-173.86514472 529.23935136 -182.27981251 511.3575001 -187.375 491.1875 C-187.55434082 490.50800293 -187.73368164 489.82850586 -187.91845703 489.12841797 C-192.15587893 472.36808883 -190.6453486 454.33176045 -190.375 437.1875 C-201.46809034 454.48048103 -201.46809034 454.48048103 -212.5 471.8125 C-212.96615723 472.54742676 -213.43231445 473.28235352 -213.91259766 474.03955078 C-216.7162964 478.484719 -219.45359459 482.96528501 -222.15625 487.47265625 C-222.79546387 488.53597168 -223.43467773 489.59928711 -224.09326172 490.69482422 C-225.34640013 492.7848858 -226.59302882 494.87886679 -227.83251953 496.97705078 C-228.6772583 498.38639893 -228.6772583 498.38639893 -229.5390625 499.82421875 C-230.03873535 500.66686279 -230.5384082 501.50950684 -231.05322266 502.37768555 C-231.48940918 502.97492432 -231.9255957 503.57216309 -232.375 504.1875 C-233.035 504.1875 -233.695 504.1875 -234.375 504.1875 C-256.43628708 478.32353827 -269.52806233 443.01856614 -276.375 410.1875 C-276.55289062 409.3531543 -276.73078125 408.51880859 -276.9140625 407.65917969 C-281.65456147 384.37994366 -281.61560119 357.33466574 -276.375 334.1875 C-276.17632324 333.28708984 -275.97764648 332.38667969 -275.77294922 331.45898438 C-269.96187104 305.77706584 -259.71752841 281.65846853 -244.375 260.1875 C-259.99488389 266.20633768 -275.2333385 272.96080659 -290.46264648 279.89404297 C-291.42372314 280.32088379 -292.3847998 280.74772461 -293.375 281.1875 C-294.24390869 281.57437988 -295.11281738 281.96125977 -296.00805664 282.35986328 C-298.375 283.1875 -298.375 283.1875 -302.375 283.1875 C-300.52865302 230.75124588 -279.47293945 180.1436572 -241.125 144.125 C-219.2876694 124.84048411 -193.58876604 111.40600395 -165.375 104.1875 C-173.11358848 100.11720346 -181.18188046 96.847274 -189.25 93.5 C-191.38720229 92.61062169 -193.52407145 91.72045119 -195.66067505 90.82963562 C-196.98242318 90.2788423 -198.30457232 89.72901011 -199.62716675 89.18025208 C-201.90604292 88.23262104 -204.16671773 87.29164113 -206.375 86.1875 C-204.77559582 81.81788596 -201.37758927 79.24000933 -197.9375 76.3125 C-197.27645264 75.74660156 -196.61540527 75.18070312 -195.93432617 74.59765625 C-140.98004601 28.22381139 -72.28965356 -0.12682015 0 0 Z M-28.4375 67.1875 C-34.8774583 77.15904834 -32.32134357 89.40613219 -29.96923828 100.41699219 C-25.72909146 118.84786866 -19.3296685 137.03037187 -11.375 154.1875 C-8.29796364 151.52455511 -6.65602784 148.34522711 -4.72265625 144.796875 C-4.38125107 144.17403625 -4.03984589 143.55119751 -3.68809509 142.90948486 C-2.59966294 140.9214551 -1.51839986 138.92963339 -0.4375 136.9375 C0.64139377 134.96053536 1.72174237 132.9843718 2.80238342 131.00836182 C3.78719179 129.20575013 4.76857138 127.40126646 5.74975586 125.59667969 C6.72889297 123.81661581 7.71343015 122.03873535 8.75151062 120.29238892 C11.00443434 116.67942705 11.00443434 116.67942705 11.58984375 112.5546875 C10.45149072 109.76180517 9.03543072 107.69956543 7.1875 105.3125 C3.66648878 100.64124918 0.35286226 95.87850649 -2.875 91 C-3.32029053 90.32791504 -3.76558105 89.65583008 -4.22436523 88.96337891 C-5.27649933 87.37268921 -6.32604045 85.78028489 -7.375 84.1875 C8.12543437 85.09137148 8.12543437 85.09137148 14.0625 85.75 C18.60425097 86.24350095 23.05841538 86.26115459 27.625 86.1875 C24.82592901 82.899372 21.15510718 81.00983429 17.4375 78.9375 C16.73568604 78.5448999 16.03387207 78.1522998 15.31079102 77.74780273 C10.328103 75.01106758 5.26768536 72.5338513 0.0625 70.25 C-0.57905029 69.96801758 -1.22060059 69.68603516 -1.8815918 69.39550781 C-10.00548438 65.9336639 -20.37828638 61.92434008 -28.4375 67.1875 Z M146.80541992 184.37109375 C146.03415771 184.39060089 145.26289551 184.41010803 144.46826172 184.4302063 C141.93064841 184.49453754 139.39305894 184.55976372 136.85546875 184.625 C135.09141681 184.66989574 133.32736344 184.71473545 131.56330872 184.75952148 C126.92895085 184.87732942 122.29461273 184.99589726 117.66027832 185.11462402 C112.92782746 185.23572965 108.19535829 185.35611568 103.46289062 185.4765625 C94.18357571 185.71283789 84.9042815 185.94991617 75.625 186.1875 C78.26751279 188.83001279 81.32682002 189.88542192 84.7265625 191.28515625 C85.4589917 191.5914798 86.1914209 191.89780334 86.94604492 192.21340942 C89.37890143 193.22996867 91.81447627 194.23984977 94.25 195.25 C96.82128925 196.32289665 99.39179599 197.39765285 101.96224976 198.47254944 C103.7543641 199.22189449 105.5467065 199.97069434 107.33926392 200.71897888 C117.32911865 204.89154662 127.28997782 209.13183147 137.25 213.375 C142.70208262 215.69731918 148.154779 218.01814715 153.61047363 220.33197021 C154.92280045 220.88928964 156.23459622 221.4478617 157.54577637 222.00787354 C159.24529642 222.73371855 160.94679646 223.45492262 162.6484375 224.17578125 C163.57317871 224.56934814 164.49791992 224.96291504 165.45068359 225.3684082 C167.54968696 226.3050093 167.54968696 226.3050093 169.625 226.1875 C168.32126953 221.9390486 166.68856638 218.20083483 164.55078125 214.30859375 C163.96619141 213.22255859 163.38160156 212.13652344 162.77929688 211.01757812 C161.54712017 208.74791647 160.30747201 206.48229575 159.06054688 204.22070312 C158.47982422 203.13595703 157.89910156 202.05121094 157.30078125 200.93359375 C156.4950769 199.45910767 156.4950769 199.45910767 155.6730957 197.95483398 C154.46725222 194.77099147 154.54331798 193.37748344 155.625 190.1875 C156.8954964 188.14700578 158.21931196 186.13732535 159.625 184.1875 C155.3493885 184.16310704 151.07919838 184.2601982 146.80541992 184.37109375 Z M-100.68359375 228.6484375 C-103.19663676 231.01923279 -105.77098993 233.29276064 -108.375 235.5625 C-127.93153955 253.14774037 -144.34958752 275.0549784 -158.375 297.1875 C-158.76864746 297.8057666 -159.16229492 298.4240332 -159.56787109 299.06103516 C-171.30585317 317.70258297 -181.40443756 337.94441189 -187.375 359.1875 C-187.71015625 360.37085938 -188.0453125 361.55421875 -188.390625 362.7734375 C-189.61551609 367.37234677 -190.52942663 371.40885363 -190.375 376.1875 C-185.79729698 372.44210662 -181.58923533 368.45305548 -177.4375 364.25 C-173.64274881 360.41396992 -169.81034628 356.7257612 -165.69921875 353.2265625 C-162.35239125 350.29035417 -159.12114855 347.23415351 -155.875 344.1875 C-141.21868622 330.46872874 -141.21868622 330.46872874 -137.375 329.1875 C-137.69662109 329.74397217 -138.01824219 330.30044434 -138.34960938 330.8737793 C-155.21634388 360.29131321 -167.40274751 393.91559988 -168.375 428.1875 C-168.40078125 428.96963867 -168.4265625 429.75177734 -168.453125 430.55761719 C-169.02735915 450.28973806 -167.17814278 469.27573521 -161.375 488.1875 C-161.045 488.1875 -160.715 488.1875 -160.375 488.1875 C-160.24037354 486.93151001 -160.24037354 486.93151001 -160.10302734 485.65014648 C-152.96053653 420.22475271 -135.9246797 355.49865433 -84.17578125 310.83203125 C-83.58152344 310.28933594 -82.98726563 309.74664062 -82.375 309.1875 C-82.375 308.8575 -82.375 308.5275 -82.375 308.1875 C-85.64602739 308.32916405 -88.91677036 308.47663244 -92.1875 308.625 C-93.09693359 308.66431641 -94.00636719 308.70363281 -94.94335938 308.74414062 C-101.44150928 309.04264221 -107.90174112 309.54763269 -114.375 310.1875 C-105.14154734 289.97075086 -94.75601071 270.96219476 -81.375 253.1875 C-80.97603516 252.65108887 -80.57707031 252.11467773 -80.16601562 251.56201172 C-70.81266256 239.00426918 -60.53382576 227.25513193 -49.87158203 215.79736328 C-48.24215574 214.04460032 -46.61915387 212.28600246 -44.99609375 210.52734375 C-38.77390209 203.80466399 -32.48463442 197.18009511 -25.92993164 190.77929688 C-24.72801087 189.59904163 -23.54881435 188.39571184 -22.375 187.1875 C-22.375 186.8575 -22.375 186.5275 -22.375 186.1875 C-51.05722437 185.11083993 -81.17798011 210.2308921 -100.68359375 228.6484375 Z M54.625 198.1875 C55.625 200.1875 55.625 200.1875 55.625 200.1875 Z M-189.375 434.1875 C-188.375 436.1875 -188.375 436.1875 -188.375 436.1875 Z " fill="#fff" transform="translate(302.375,-0.1875)"/>
<path d="M0 0 C-2.4534103 8.50212303 -5.27184486 16.87576573 -8.11328125 25.25390625 C-8.61040322 26.72342513 -9.10740498 28.19298468 -9.60429382 29.6625824 C-10.64291339 32.73318502 -11.68270027 35.80338896 -12.72338867 38.87329102 C-14.03958207 42.75607166 -15.3532987 46.63968445 -16.66616535 50.52359104 C-17.69235907 53.55872172 -18.71969456 56.593465 -19.74736595 59.62809563 C-20.23114121 61.05693715 -20.71463496 62.48587403 -21.19780922 63.9149189 C-22.55065831 67.91471743 -23.91187029 71.91150877 -25.28317642 75.90501785 C-25.78851259 77.38190881 -26.29067692 78.85988691 -26.79055405 80.33863449 C-27.59323618 82.71118704 -28.4054716 85.08028847 -29.21948242 87.44897461 C-29.59165248 88.55891077 -29.59165248 88.55891077 -29.97134113 89.69126987 C-31.77234456 94.88617228 -31.77234456 94.88617228 -34 96 C-39.34319237 74.81932538 -44.68053814 53.6381408 -49.6875 32.375 C-49.85934814 31.64831116 -50.03119629 30.92162231 -50.20825195 30.1729126 C-50.68717478 28.14455741 -51.16272371 26.1154492 -51.63671875 24.0859375 C-51.90186279 22.9520459 -52.16700684 21.8181543 -52.44018555 20.64990234 C-53 18 -53 18 -53 16 C-45.77469028 13.71736958 -38.54799819 11.43915842 -31.3203125 9.1640625 C-28.8600281 8.38904691 -26.40006588 7.61300783 -23.94042969 6.8359375 C-20.4116434 5.72128462 -16.88172725 4.61027826 -13.3515625 3.5 C-11.69370224 2.9750293 -11.69370224 2.9750293 -10.00234985 2.43945312 C-8.47098892 1.95895508 -8.47098892 1.95895508 -6.90869141 1.46875 C-6.00712311 1.18451172 -5.10555481 0.90027344 -4.17666626 0.60742188 C-2 0 -2 0 0 0 Z " fill="#fff" transform="translate(555,366)"/>
</svg>
